PathFileType	4	(X/Y/Z)	Patient4_TMGait_0pt5_02_right_43.trc.trc
DataRate	CameraRate	NumFrames	NumMarkers	Units	OrigDataRate	OrigDataStartFrame	OrigNumFrames
79.545454545455	79.545454545455	5	33	mm	79.545454545455	18	       141
Frame#	Time	Sacral			L.Shoulder			Chest			R.Shoulder			Neck			R.ASIS			L.ASIS			R.Thigh.Superior			R.Thigh.Lateral			R.Thigh.Inferior			R.Patella			L.Thigh.Superior			L.Thigh.Lateral			L.Thigh.Inferior			L.Patella			L.Shank.Superior			L.Shank.Lateral			L.Shank.Inferior			R.Shank.Superior			R.Shank.Lateral			R.Shank.Inferior			R.Heel			R.Midfoot.Superior			R.Midfoot.Lateral			R.Toe			L.Heel			L.Midfoot.Lateral			L.Midfoot.Superior			L.Toe			L.Elbow			L.Wrist			R.Elbow			R.Wrist			
		X1	Y1	Z1	X2	Y2	Z2	X3	Y3	Z3	X4	Y4	Z4	X5	Y5	Z5	X6	Y6	Z6	X7	Y7	Z7	X8	Y8	Z8	X9	Y9	Z9	X10	Y10	Z10	X11	Y11	Z11	X12	Y12	Z12	X13	Y13	Z13	X14	Y14	Z14	X15	Y15	Z15	X16	Y16	Z16	X17	Y17	Z17	X18	Y18	Z18	X19	Y19	Z19	X20	Y20	Z20	X21	Y21	Z21	X22	Y22	Z22	X23	Y23	Z23	X24	Y24	Z24	X25	Y25	Z25	X26	Y26	Z26	X27	Y27	Z27	X28	Y28	Z28	X29	Y29	Z29	X30	Y30	Z30	X31	Y31	Z31	X32	Y32	Z32	X33	Y33	Z33	

18	56.343714285714	682.675421566237	1016.324245136216	444.660900552323	911.445821623645	1431.214335726834	278.541354624542	991.265609049355	1353.953129878571	448.604174907332	895.988828302898	1434.649567993173	613.736885955530	897.819688099400	1491.812253308103	428.490340479458	895.603350658859	941.124109658402	582.089140751048	903.356966969611	954.169776871094	308.322491810205	971.196661515713	771.429172277402	552.795367162131	924.685818878890	652.824113098724	624.250897167835	1010.890592768791	615.449362090190	542.914886335751	1043.027146813227	534.331656079704	557.988657896772	925.131789732507	735.584371187310	344.843746565061	828.145789284524	632.386246098258	273.969468619287	889.358114179347	544.932625799278	348.143657616903	878.175825456312	475.028594655712	357.115570561414	844.469680302252	406.534041693450	345.137385851283	747.389535513552	302.794155894332	287.358929197384	777.213136201389	187.328509821056	361.370494750268	1031.798247804220	443.125782927023	570.657806591075	985.333471368133	329.391156386473	638.453101235133	1052.459052224630	243.921219239969	583.645495079656	962.826624033481	53.214082455874	560.545921261115	1123.231118758316	135.021495249341	597.365291858144	1048.340275484809	56.164359910287	633.119626642164	1249.133644867586	103.657492859944	621.454661692121	633.416002908158	38.521621812427	393.957181546506	709.449201631626	35.590418363861	315.634807304745	792.618246965183	95.532342917386	345.874791889830	921.271735647621	41.019989588222	318.950627867581	919.735023918804	1087.781964415436	135.956842454730	1159.170595993841	1000.179083934965	163.461509563518	742.008273016619	1131.425772439430	734.689121642842	694.374733889118	877.769375743299	765.007342819227	
19	56.356285714286	684.701986703580	1015.157639315669	446.861469469561	912.614160561225	1430.235219047607	280.799213750456	992.465515398251	1353.141903249827	450.910007236063	896.996750525783	1433.786424686894	615.949700915729	898.720850433127	1490.855616547109	430.703951490618	897.619672293823	939.578789635618	584.114484982335	905.541929696235	953.566401909078	310.161880492586	972.293735879972	768.892209950400	555.208932088351	923.654637757694	650.159719276768	625.741211278644	1010.297663015443	612.434328356811	545.175045324078	1040.266792138233	531.012209319740	559.517950079989	925.149682435211	733.950136520778	346.166010648220	826.889200336223	631.592464926497	275.276806812940	887.357820100383	543.444095023165	349.088712597939	875.562218271674	473.538308162217	358.005376833016	841.191323959958	405.398929237231	346.008792963107	743.129786815225	302.656100156260	288.059736207687	771.831337014213	186.793847470909	361.787991373656	1029.228846225517	439.854405974755	572.190134155045	982.287855319398	326.342282708120	639.798350433897	1049.118603908691	240.750763148763	584.939826448083	958.613321975473	51.287723754195	561.572133820684	1119.530063123729	131.205078424705	598.429941351265	1044.081236391709	53.303706195535	634.163783436246	1245.099564252897	98.666453405335	622.334317561962	627.081615909090	38.434674774149	393.972265473252	703.124017417218	35.528137741567	315.727272574339	786.331014861187	95.432691382810	345.979926631540	914.936550082317	40.854751204939	318.939076928708	921.161249961982	1086.817542917752	138.435883229906	1160.707242345663	1000.300347930163	167.116142077470	740.074544716848	1131.977006604952	735.434759078871	691.599351445176	878.294514550743	764.909726414172	
20	56.368857142857	686.885600238184	1013.816808200106	449.362780583736	913.503745813745	1429.169871397672	283.233863625340	993.654030811546	1352.295494922629	453.295413422254	898.111230802060	1432.756673176336	618.406064535540	899.508895794731	1489.801441247926	433.122539987479	899.971432563852	937.861500412852	586.108167044392	907.932153581260	952.932858520606	311.979047299634	973.736183321091	766.053508948815	557.624120541163	922.700301172992	647.270396799773	627.103451618919	1009.868613303352	609.128501016442	547.400455538525	1037.541099838144	527.169111843967	560.958803922444	925.393024584146	732.229684630092	347.409824156814	825.782889409441	630.682706142876	276.712998712451	885.636861189474	541.856645047572	350.056630807545	873.291048617450	471.889570095119	358.949377454995	838.151580345094	404.158577171399	346.942084954511	738.992004694320	302.516379658110	288.825443678683	766.492237586481	186.226565159137	362.226536522772	1026.227035447166	436.062352549321	573.557466721747	978.226661313268	323.036531039048	641.014121546323	1044.241771917797	236.969831704144	586.067493869474	951.745668000344	49.462480446421	562.627515920709	1113.622247786015	126.479085294105	599.233674265322	1037.220577898335	50.185564244466	635.203760281138	1238.741012956319	92.073713247934	622.926165245678	620.727081050968	38.358204051094	393.971490156493	696.791778925119	35.474536944794	315.813149958128	780.039453216300	95.337855087328	346.083542975722	908.599030895575	40.679761615715	318.919308183325	922.366411253018	1085.683959242108	141.170545765888	1161.797147110769	999.362808908579	170.895811191605	738.948809145687	1131.861592716641	736.218131029808	690.203955808830	877.988110448323	764.676302245496	
21	56.381428571429	689.186140845735	1012.361059147948	452.107869479921	914.142240771859	1428.058797082551	285.845902818841	994.850006989928	1351.436860588413	455.761291785018	899.347656124981	1431.577654216047	621.112477611536	900.227522167082	1488.687224771205	435.755869260461	902.600778955965	936.043317658475	588.053717519443	910.528251862214	952.298918726663	313.770596526080	975.389561779788	762.918257951209	560.044354250930	921.762225267935	644.257959477667	628.376559787087	1009.454072072534	605.615387711419	549.540369270513	1034.836759916233	522.987740766488	562.296467617298	925.895614121998	730.460371766096	348.600886737365	824.901751186713	629.672039791160	278.297860943918	884.279614627190	540.196826477169	351.088777204427	871.467921861513	470.090557099258	359.973085691778	835.426007929486	402.828803783109	347.960870465381	735.039549490691	302.417209187138	289.665471706718	761.232958341602	185.659679809834	362.684964305941	1022.894794858671	431.939289427312	574.761636057175	973.436113157230	319.565734738293	642.093837525623	1038.263058276860	232.782403750188	586.998670220890	942.968587427890	47.739906902995	563.659634847470	1106.108668406645	121.199317802571	599.760008494093	1028.490959361945	46.992116916859	636.195867476691	1230.724987155548	84.469873698624	623.218548376570	614.358225379797	38.370831324312	393.946128244878	690.461719529378	35.473684304760	315.885246973570	773.770667325224	95.266960291748	346.178962806743	902.268327968892	40.485368247309	318.889010646400	923.303133771215	1084.397122498879	144.165509415280	1162.413061942031	997.412179116773	174.771172093910	738.670671004461	1131.075078343620	737.087352140760	690.198056693454	876.856186572877	764.356061440283	
22	56.394000000000	691.548115306756	1010.872652517739	455.024147876897	914.578027784771	1426.959791531346	288.627368708511	996.073045201595	1350.600897249243	458.306785461559	900.717563974963	1430.291570912036	624.062198862943	900.933382648768	1487.569398901793	438.602871914823	905.420498608264	934.224760322367	589.949348692656	913.294257901722	951.699925364786	315.549875965089	977.112943652022	759.564443356112	562.472095562521	920.826463937360	641.270458499904	629.607976243123	1008.943918185236	602.047008910956	551.538295767621	1032.180382665940	518.709207515426	563.521096450776	926.686436599905	728.702220630459	349.782613935325	824.334668775357	628.590708008568	280.053572138158	883.387704129064	538.509917662332	352.236996139201	870.214168430050	468.166270435877	361.105745490104	833.105594953370	401.440537857349	349.090694566847	731.354014139615	302.421681325646	290.591205787796	756.109032335525	185.145882490639	363.160451744183	1019.381305334371	427.727935024480	575.812499692274	968.253096658910	316.081258458087	643.037080789583	1031.660384920646	228.454103102877	587.713699946640	933.077423240771	46.165461369264	564.606524679773	1097.629595877635	115.784055623498	600.008182380973	1018.666658359497	43.941236783726	637.091660784380	1221.745775246397	76.509735460246	623.234902062998	607.990299296103	38.587302483934	393.889794493633	684.149442732297	35.589938554420	315.938088584861	767.567452449820	95.247048454587	346.256607790670	895.956660577771	40.262484627940	318.845910720924	923.925551257075	1082.987128195775	147.426359424564	1162.512362977263	994.494995426625	178.708866697013	739.281814686526	1129.646191844409	738.083441514074	691.596084309384	874.939296630031	764.000994593334	
